<svg width="24" height="24" viewBox="0 0 24 24" fill="none" xmlns="http://www.w3.org/2000/svg">
<path d="M23.3171 11.316C24.6011 10.008 23.8931 7.728 22.1171 7.452L17.5931 6.768C16.8851 6.66 16.2731 6.192 15.9611 5.532L13.9331 1.26C13.5371 0.42 12.7571 0 11.9891 0C11.2211 0 10.4411 0.42 10.0451 1.26L8.01708 5.532C7.70508 6.204 7.09308 6.66 6.38508 6.768L1.86108 7.452C0.0850827 7.716 -0.634917 10.008 0.661083 11.316L3.93708 14.64C4.45308 15.156 4.68108 15.912 4.56108 16.644L3.79308 21.348C3.55308 22.812 4.66908 24 5.92908 24C6.26508 24 6.61308 23.916 6.93708 23.736L10.9931 21.516C11.3051 21.348 11.6531 21.252 12.0011 21.252C12.3491 21.252 12.6971 21.336 13.0091 21.516L17.0651 23.736C17.4011 23.916 17.7371 24 18.0731 24C19.3331 24 20.4491 22.812 20.2091 21.348L19.4411 16.644C19.3211 15.912 19.5491 15.156 20.0651 14.64L23.3411 11.316H23.3171ZM18.0131 12.48C16.8131 13.692 16.2731 15.444 16.5491 17.16L17.0771 20.352L14.3291 18.852C13.6091 18.456 12.7931 18.24 11.9651 18.24C11.1371 18.24 10.3331 18.444 9.60108 18.852L6.85308 20.352L7.38108 17.16C7.66908 15.444 7.11708 13.692 5.91708 12.48L3.69708 10.224L6.76908 9.756C8.42508 9.504 9.85308 8.424 10.5851 6.864L11.9531 3.96L13.3211 6.864C14.0651 8.424 15.4931 9.504 17.1371 9.756L20.2091 10.224L17.9891 12.48H18.0131Z" fill="#9DA1C1"/>
</svg>
