<svg width="20" height="24" viewBox="0 0 20 24" fill="none" xmlns="http://www.w3.org/2000/svg">
<path d="M18 16.8C17.34 16.8 16.8 16.26 16.8 15.6V9.6C16.8 5.34 13.956 2.976 10.8 2.496V1.2C10.8 0.54 10.26 0 9.6 0C8.94 0 8.4 0.54 8.4 1.2V2.496C5.244 2.976 2.4 5.34 2.4 9.6V15.6C2.4 16.26 1.86 16.8 1.2 16.8C0.54 16.8 0 17.34 0 18C0 18.66 0.54 19.2 1.2 19.2H6V20.4C6 22.392 7.608 24 9.6 24C11.592 24 13.2 22.392 13.2 20.4V19.2H18C18.66 19.2 19.2 18.66 19.2 18C19.2 17.34 18.66 16.8 18 16.8ZM10.8 20.4C10.8 21.06 10.26 21.6 9.6 21.6C8.94 21.6 8.4 21.06 8.4 20.4V19.2H10.8V20.4ZM14.4 16.8H4.8V9.6C4.8 6.396 7.2 4.8 9.6 4.8C12 4.8 14.4 6.396 14.4 9.6V16.8Z" fill="#9DA1C1"/>
</svg>
