<svg width="32" height="32" viewBox="0 0 32 32" fill="none" xmlns="http://www.w3.org/2000/svg">
<path d="M28.8 0H3.2C1.44 0 0 1.44 0 3.2V28.8C0 30.56 1.44 32 3.2 32H28.8C30.56 32 32 30.56 32 28.8V3.2C32 1.44 30.56 0 28.8 0ZM20.8 10.592C20.8 12.896 19.168 14.816 16.992 15.28C16.048 15.2 15.776 15.216 14.976 15.28C12.816 14.816 11.184 12.896 11.184 10.592C11.184 7.952 13.344 5.792 15.984 5.792C18.624 5.792 20.784 7.952 20.784 10.592H20.8ZM3.2 26.592V4.192C3.2 3.312 3.92 3.2 4.8 3.2H12.928C10.032 4.4 8 7.248 8 10.592C8 12.896 8.992 14.976 10.56 16.432C6.576 18.288 3.68 22.128 3.216 26.688C3.216 26.656 3.2 26.624 3.2 26.592ZM25.536 28.8H6.352C6.352 28.8 6.352 28.384 6.352 28.32C6.352 23.36 10.128 19.136 14.944 18.624C16 18.768 16.416 18.592 16.992 18.512C21.792 19.04 25.552 23.392 25.552 28.32C25.552 28.384 25.552 28.784 25.552 28.784L25.536 28.8ZM28.8 26.592C28.8 26.768 28.752 26.928 28.704 27.072C28.352 22.368 25.472 18.368 21.408 16.464C22.992 15.008 24.016 12.928 24.016 10.592C24.016 7.264 21.984 4.416 19.088 3.2H27.216C28.096 3.2 28.816 3.296 28.816 4.192V26.592H28.8Z" fill="#9DA1C1"/>
</svg>
